<svg width="26" height="26" viewBox="0 0 26 26" fill="none" xmlns="http://www.w3.org/2000/svg">
<g clip-path="url(#clip0_7855_61169)">
<path d="M21.25 1H4.75C2.67893 1 1 2.67893 1 4.75V21.25C1 23.3211 2.67893 25 4.75 25H21.25C23.3211 25 25 23.3211 25 21.25V4.75C25 2.67893 23.3211 1 21.25 1Z" fill="#FE414D"/>
<path d="M8.54266 11.972C10.0575 11.972 11.2855 10.744 11.2855 9.22918C11.2855 7.71435 10.0575 6.48633 8.54266 6.48633C7.02782 6.48633 5.7998 7.71435 5.7998 9.22918C5.7998 10.744 7.02782 11.972 8.54266 11.972Z" fill="#323232"/>
<path d="M17.4577 11.972C18.9725 11.972 20.2006 10.744 20.2006 9.22918C20.2006 7.71435 18.9725 6.48633 17.4577 6.48633C15.9429 6.48633 14.7148 7.71435 14.7148 9.22918C14.7148 10.744 15.9429 11.972 17.4577 11.972Z" fill="#323232"/>
<path d="M8.54266 20.2006C10.0575 20.2006 11.2855 18.9725 11.2855 17.4577C11.2855 15.9429 10.0575 14.7148 8.54266 14.7148C7.02782 14.7148 5.7998 15.9429 5.7998 17.4577C5.7998 18.9725 7.02782 20.2006 8.54266 20.2006Z" fill="#323232"/>
<path d="M17.4577 20.2006C18.9725 20.2006 20.2006 18.9725 20.2006 17.4577C20.2006 15.9429 18.9725 14.7148 17.4577 14.7148C15.9429 14.7148 14.7148 15.9429 14.7148 17.4577C14.7148 18.9725 15.9429 20.2006 17.4577 20.2006Z" fill="#323232"/>
</g>
<rect x="3.5" y="3.5" width="19" height="19" rx="4.75" fill="white" stroke="#0B4BC8" stroke-width="0.5"/>
<circle cx="10.1562" cy="8.53125" r="0.96875" fill="#0B4BC8" stroke="#E8E8E8" stroke-width="0.5"/>
<circle cx="15.8438" cy="8.53125" r="0.96875" fill="#0B4BC8" stroke="#E8E8E8" stroke-width="0.5"/>
<circle cx="10.1562" cy="12.5938" r="0.96875" fill="#0B4BC8" stroke="#E8E8E8" stroke-width="0.5"/>
<circle cx="15.8438" cy="12.5938" r="0.96875" fill="#0B4BC8" stroke="#E8E8E8" stroke-width="0.5"/>
<circle cx="10.1562" cy="16.6562" r="0.96875" fill="#0B4BC8" stroke="#E8E8E8" stroke-width="0.5"/>
<circle cx="15.8438" cy="16.6562" r="0.96875" fill="#0B4BC8" stroke="#E8E8E8" stroke-width="0.5"/>
<g clip-path="url(#clip1_7855_61169)">
<path d="M24.4706 0H1.52941C0.684741 0 0 0.684741 0 1.52941V24.4706C0 25.3153 0.684741 26 1.52941 26H24.4706C25.3153 26 26 25.3153 26 24.4706V1.52941C26 0.684741 25.3153 0 24.4706 0Z" fill="#FE414D"/>
<path d="M12.427 7.26528C12.427 4.41452 10.116 2.10352 7.26528 2.10352C4.41452 2.10352 2.10352 4.41452 2.10352 7.26528C2.10352 10.116 4.41452 12.427 7.26528 12.427C10.116 12.427 12.427 10.116 12.427 7.26528Z" fill="white"/>
<path d="M23.7063 7.26528C23.7063 4.41452 21.3953 2.10352 18.5446 2.10352C15.6938 2.10352 13.3828 4.41452 13.3828 7.26528C13.3828 10.116 15.6938 12.427 18.5446 12.427C21.3953 12.427 23.7063 10.116 23.7063 7.26528Z" fill="white"/>
<path d="M23.7063 18.5446C23.7063 15.6938 21.3953 13.3828 18.5446 13.3828C15.6938 13.3828 13.3828 15.6938 13.3828 18.5446C13.3828 21.3953 15.6938 23.7063 18.5446 23.7063C21.3953 23.7063 23.7063 21.3953 23.7063 18.5446Z" fill="white"/>
<path d="M12.427 18.5446C12.427 15.6938 10.116 13.3828 7.26528 13.3828C4.41452 13.3828 2.10352 15.6938 2.10352 18.5446C2.10352 21.3953 4.41452 23.7063 7.26528 23.7063C10.116 23.7063 12.427 21.3953 12.427 18.5446Z" fill="white"/>
</g>
<defs>
<clipPath id="clip0_7855_61169">
<rect width="24" height="24" fill="white" transform="translate(1 1)"/>
</clipPath>
<clipPath id="clip1_7855_61169">
<rect width="26" height="26" fill="white"/>
</clipPath>
</defs>
</svg>
